<?xml version="1.0" encoding="UTF-8" standalone="no"?>
<!-- Created with Inkscape (http://www.inkscape.org/) -->

<svg
   width="210mm"
   height="297mm"
   viewBox="0 0 210 297"
   version="1.1"
   id="svg5"
   inkscape:version="1.1.1 (3bf5ae0d25, 2021-09-20)"
   sodipodi:docname="cora-sumaway-logo.svg"
   inkscape:export-filename="C:\Users\julia\Documents\crs-wholistic-wellness\img\sample-of-logo.png"
   inkscape:export-xdpi="96"
   inkscape:export-ydpi="96"
   xmlns:inkscape="http://www.inkscape.org/namespaces/inkscape"
   xmlns:sodipodi="http://sodipodi.sourceforge.net/DTD/sodipodi-0.dtd"
   xmlns="http://www.w3.org/2000/svg"
   xmlns:svg="http://www.w3.org/2000/svg">
  <sodipodi:namedview
     id="namedview7"
     pagecolor="#ffffff"
     bordercolor="#999999"
     borderopacity="1"
     inkscape:pageshadow="0"
     inkscape:pageopacity="0"
     inkscape:pagecheckerboard="0"
     inkscape:document-units="mm"
     showgrid="false"
     inkscape:snap-nodes="false"
     inkscape:zoom="0.61112514"
     inkscape:cx="943.34198"
     inkscape:cy="677.43899"
     inkscape:window-width="1682"
     inkscape:window-height="1008"
     inkscape:window-x="216"
     inkscape:window-y="0"
     inkscape:window-maximized="0"
     inkscape:current-layer="layer1" />
  <defs
     id="defs2">
    <inkscape:path-effect
       effect="skeletal"
       id="path-effect4111"
       is_visible="true"
       lpeversion="1"
       pattern="m 10.811764,-24.787752 c 0,-3.280407 2.80455,-5.942768 6.260154,-5.942768 3.455606,0 6.260156,2.662361 6.260156,5.942768 0,3.280408 -2.80455,5.942767 -6.260156,5.942767 -3.455604,0 -6.260154,-2.662359 -6.260154,-5.942767 z"
       copytype="single_stretched"
       prop_scale="1"
       scale_y_rel="false"
       spacing="0"
       normal_offset="0"
       tang_offset="0"
       prop_units="false"
       vertical_pattern="false"
       hide_knot="false"
       fuse_tolerance="0" />
    <inkscape:path-effect
       effect="skeletal"
       id="path-effect1845"
       is_visible="true"
       lpeversion="1"
       pattern="m -233.43781,118.15586 c 0,-0.59009 6.1253,-1.069 13.67255,-1.069 7.54725,0 13.67256,0.47891 13.67256,1.069 0,0.59009 -6.12531,1.069 -13.67256,1.069 -7.54725,0 -13.67255,-0.47891 -13.67255,-1.069 z"
       copytype="single_stretched"
       prop_scale="1"
       scale_y_rel="false"
       spacing="0"
       normal_offset="0"
       tang_offset="0"
       prop_units="false"
       vertical_pattern="false"
       hide_knot="false"
       fuse_tolerance="0" />
    <inkscape:path-effect
       effect="spiro"
       id="path-effect1843"
       is_visible="true"
       lpeversion="1" />
    <inkscape:path-effect
       effect="skeletal"
       id="path-effect1007"
       is_visible="true"
       lpeversion="1"
       pattern="M 0,4.9921382 C 0,2.2364779 2.2364779,0 4.9921382,0 c 2.7556604,0 4.9921383,2.2364779 4.9921383,4.9921382 0,2.7556604 -2.2364779,4.9921383 -4.9921383,4.9921383 C 2.2364779,9.9842765 0,7.7477986 0,4.9921382 Z"
       copytype="single_stretched"
       prop_scale="1"
       scale_y_rel="false"
       spacing="0"
       normal_offset="0"
       tang_offset="0"
       prop_units="false"
       vertical_pattern="false"
       hide_knot="false"
       fuse_tolerance="0" />
    <inkscape:path-effect
       effect="skeletal"
       id="path-effect992"
       is_visible="true"
       lpeversion="1"
       pattern="M 0,4.9921382 C 0,2.2364779 2.2364779,0 4.9921382,0 c 2.7556604,0 4.9921383,2.2364779 4.9921383,4.9921382 0,2.7556604 -2.2364779,4.9921383 -4.9921383,4.9921383 C 2.2364779,9.9842765 0,7.7477986 0,4.9921382 Z"
       copytype="single_stretched"
       prop_scale="1"
       scale_y_rel="false"
       spacing="0"
       normal_offset="0"
       tang_offset="0"
       prop_units="false"
       vertical_pattern="false"
       hide_knot="false"
       fuse_tolerance="0" />
    <inkscape:path-effect
       effect="skeletal"
       id="path-effect986"
       is_visible="true"
       lpeversion="1"
       pattern="M 0,4.9921382 C 0,2.2364779 2.2364779,0 4.9921382,0 c 2.7556604,0 4.9921383,2.2364779 4.9921383,4.9921382 0,2.7556604 -2.2364779,4.9921383 -4.9921383,4.9921383 C 2.2364779,9.9842765 0,7.7477986 0,4.9921382 Z"
       copytype="single_stretched"
       prop_scale="1"
       scale_y_rel="false"
       spacing="0"
       normal_offset="0"
       tang_offset="0"
       prop_units="false"
       vertical_pattern="false"
       hide_knot="false"
       fuse_tolerance="0" />
    <inkscape:path-effect
       effect="skeletal"
       id="path-effect947"
       is_visible="true"
       lpeversion="1"
       pattern="M 0,4.9921382 C 0,2.2364779 2.2364779,0 4.9921382,0 c 2.7556604,0 4.9921383,2.2364779 4.9921383,4.9921382 0,2.7556604 -2.2364779,4.9921383 -4.9921383,4.9921383 C 2.2364779,9.9842765 0,7.7477986 0,4.9921382 Z"
       copytype="single_stretched"
       prop_scale="1"
       scale_y_rel="false"
       spacing="0"
       normal_offset="0"
       tang_offset="0"
       prop_units="false"
       vertical_pattern="false"
       hide_knot="false"
       fuse_tolerance="0" />
    <filter
       height="1.1786781"
       width="1.1801418"
       y="-0.089662741"
       x="-0.090072033"
       style="color-interpolation-filters:sRGB;"
       inkscape:label="Blur"
       id="filter2830">
      <feGaussianBlur
         stdDeviation="0.5 0.4"
         result="blur"
         id="feGaussianBlur2824" />
      <feColorMatrix
         values="1 0 0 0 0 0 1 0 0 0 0 0 1 0 0 0 0 0 50 0 "
         result="colormatrix"
         id="feColorMatrix2826" />
      <feComposite
         in="colormatrix"
         in2="SourceGraphic"
         operator="in"
         id="feComposite2828" />
    </filter>
  </defs>
  <g
     inkscape:label="Layer 1"
     inkscape:groupmode="layer"
     id="layer1">
    <g
       id="g1803"
       transform="matrix(0.39881504,0,0,0.39633027,404.83589,138.46078)"
       style="opacity:0.5;fill:#214a5c;fill-opacity:1;stroke:#214a5c;stroke-width:6.19806;stroke-miterlimit:4;stroke-dasharray:none;stroke-opacity:1"
       inkscape:export-filename="C:\Users\julia\Documents\crs-wholistic-wellness\img\sample-logo-with-text.png"
       inkscape:export-xdpi="96"
       inkscape:export-ydpi="96">
      <g
         id="g1771"
         style="fill:#214a5c;fill-opacity:1;stroke:#214a5c;stroke-width:6.19806;stroke-miterlimit:4;stroke-dasharray:none;stroke-opacity:1">
        <path
           style="fill:#214a5c;fill-opacity:1;stroke:#214a5c;stroke-width:6.19806;stroke-miterlimit:4;stroke-dasharray:none;stroke-opacity:1"
           d="m 31.929,0.827 h 9.9 c 0,0 -1.218,24.105 8.912,17.325 C 55.373,15.053 63.3,9.549 73.016,17.906 80.65,24.474 87.45,35.254 76.973,58 71.508,69.859 53.363,88.593 25.739,68.146 21.535,65.038 10.397,57.507 9.653,81.513 H 0.001 c 0,0 -0.376,-28.086 15.84,-25.987 8.406,1.087 27.825,6.219 30.938,-13.862 0.644,-4.158 2.455,-9.284 -7.423,-15.098 -4.209,-2.473 -7.675,-4.701 -7.427,-25.739 z"
           id="path1769" />
      </g>
      <g
         id="g1773"
         style="fill:#214a5c;fill-opacity:1;stroke:#214a5c;stroke-width:6.19806;stroke-miterlimit:4;stroke-dasharray:none;stroke-opacity:1" />
      <g
         id="g1775"
         style="fill:#214a5c;fill-opacity:1;stroke:#214a5c;stroke-width:6.19806;stroke-miterlimit:4;stroke-dasharray:none;stroke-opacity:1" />
      <g
         id="g1777"
         style="fill:#214a5c;fill-opacity:1;stroke:#214a5c;stroke-width:6.19806;stroke-miterlimit:4;stroke-dasharray:none;stroke-opacity:1" />
      <g
         id="g1779"
         style="fill:#214a5c;fill-opacity:1;stroke:#214a5c;stroke-width:6.19806;stroke-miterlimit:4;stroke-dasharray:none;stroke-opacity:1" />
      <g
         id="g1781"
         style="fill:#214a5c;fill-opacity:1;stroke:#214a5c;stroke-width:6.19806;stroke-miterlimit:4;stroke-dasharray:none;stroke-opacity:1" />
      <g
         id="g1783"
         style="fill:#214a5c;fill-opacity:1;stroke:#214a5c;stroke-width:6.19806;stroke-miterlimit:4;stroke-dasharray:none;stroke-opacity:1" />
      <g
         id="g1785"
         style="fill:#214a5c;fill-opacity:1;stroke:#214a5c;stroke-width:6.19806;stroke-miterlimit:4;stroke-dasharray:none;stroke-opacity:1" />
      <g
         id="g1787"
         style="fill:#214a5c;fill-opacity:1;stroke:#214a5c;stroke-width:6.19806;stroke-miterlimit:4;stroke-dasharray:none;stroke-opacity:1" />
      <g
         id="g1789"
         style="fill:#214a5c;fill-opacity:1;stroke:#214a5c;stroke-width:6.19806;stroke-miterlimit:4;stroke-dasharray:none;stroke-opacity:1" />
      <g
         id="g1791"
         style="fill:#214a5c;fill-opacity:1;stroke:#214a5c;stroke-width:6.19806;stroke-miterlimit:4;stroke-dasharray:none;stroke-opacity:1" />
      <g
         id="g1793"
         style="fill:#214a5c;fill-opacity:1;stroke:#214a5c;stroke-width:6.19806;stroke-miterlimit:4;stroke-dasharray:none;stroke-opacity:1" />
      <g
         id="g1795"
         style="fill:#214a5c;fill-opacity:1;stroke:#214a5c;stroke-width:6.19806;stroke-miterlimit:4;stroke-dasharray:none;stroke-opacity:1" />
      <g
         id="g1797"
         style="fill:#214a5c;fill-opacity:1;stroke:#214a5c;stroke-width:6.19806;stroke-miterlimit:4;stroke-dasharray:none;stroke-opacity:1" />
      <g
         id="g1799"
         style="fill:#214a5c;fill-opacity:1;stroke:#214a5c;stroke-width:6.19806;stroke-miterlimit:4;stroke-dasharray:none;stroke-opacity:1" />
      <g
         id="g1801"
         style="fill:#214a5c;fill-opacity:1;stroke:#214a5c;stroke-width:6.19806;stroke-miterlimit:4;stroke-dasharray:none;stroke-opacity:1" />
    </g>
    <path
       d="m 396.03692,110.33172 c 1.81123,0 3.28251,1.25752 3.28251,2.80898 v 20.06413 c 0,1.54995 -1.47128,2.80897 -3.28251,2.80897 -1.69402,0 -3.08908,-1.09852 -3.26494,-2.51304 -0.3048,0.0702 -0.62718,0.10544 -0.95544,0.10544 -2.07209,0 -3.75144,-1.43961 -3.75144,-3.21026 0,-0.37119 0.0745,-0.73234 0.21043,-1.06339 -1.76787,-0.57183 -3.02401,-2.03652 -3.02401,-3.752 0,-1.60012 1.09671,-2.98454 2.68286,-3.6266 -0.50527,-0.54673 -0.80714,-1.2841 -0.80714,-1.99136 0,-1.53992 1.26552,-2.82402 2.95485,-3.14002 -0.0921,-0.27588 -0.14127,-0.57183 -0.14127,-0.8728 0,-1.5018 1.20749,-2.76282 2.83116,-3.11345 0.17586,-1.40801 1.57092,-2.5045 3.26494,-2.5045 z m 11.70569,2.5045 c 1.62368,0.35063 2.83116,1.61165 2.83116,3.11345 0,0.30097 -0.0468,0.59692 -0.14071,0.8728 1.68815,0.316 2.95426,1.60011 2.95426,3.14002 0,0.70726 -0.29893,1.44463 -0.80889,1.99138 1.58849,0.64205 2.68461,2.02646 2.68461,3.62659 0,1.71549 -1.25439,3.18016 -3.02459,3.75199 0.1348,0.33105 0.21102,0.69221 0.21102,1.06339 0,1.77065 -1.6823,3.21026 -3.75145,3.21026 -0.32826,0 -0.65064,-0.0351 -0.95545,-0.10544 -0.17584,1.41452 -1.57091,2.51304 -3.26494,2.51304 -1.81124,0 -3.28251,-1.25902 -3.28251,-2.80897 V 113.1406 c 0,-1.55146 1.47127,-2.80897 3.28251,-2.80897 1.69403,0 3.0891,1.09649 3.26494,2.50449 z"
       id="path1805"
       style="opacity:0.5;fill:#214a5c;fill-opacity:1;stroke:#214a5c;stroke-width:2.51358;stroke-miterlimit:4;stroke-dasharray:none;stroke-opacity:1"
       inkscape:export-filename="C:\Users\julia\Documents\crs-wholistic-wellness\img\sample-logo-with-text.png"
       inkscape:export-xdpi="96"
       inkscape:export-ydpi="96" />
    <path
       d="m 81.464475,141.51909 -2.52308,5.17189 c -0.30426,0.62374 -1.18535,0.60399 -1.46434,-0.0325 l -2.88361,-6.56882 -1.52155,3.72948 -4.96719,-0.003 8.93183,9.47053 c 0.64103,0.67936 1.68915,0.67936 2.33068,0 l 8.93184,-9.47053 -5.67607,2e-4 z m 7.23054,-9.40505 c -2.75247,-2.44196 -6.96218,-2.00118 -9.49387,0.67885 l -0.99749,1.05673 -0.99749,-1.05673 c -2.5317,-2.68003 -6.73939,-3.12081 -9.49337,-0.67885 -2.908407,2.58023 -3.239047,7.00362 -1.044577,10.03919 h 5.316567 l 1.81928,-4.48317 c 0.27889,-0.66949 1.198,-0.68197 1.49573,-0.0195 l 2.9474,6.72606 2.48461,-5.09393 c 0.29793,-0.61075 1.15344,-0.61075 1.45168,0 l 1.40104,2.87184 h 6.15203 c 2.19903,-3.03687 1.86485,-7.46027 -1.04154,-10.04049 z"
       id="path1807"
       style="opacity:0.5;fill:#214a5c;fill-opacity:1;stroke:#214a5c;stroke-width:2.264;stroke-miterlimit:4;stroke-dasharray:none;stroke-opacity:1;filter:url(#filter2830)"
       transform="matrix(1.0393919,0,0,1.0823537,301.06299,2.3644892)"
       inkscape:export-filename="C:\Users\julia\Documents\crs-wholistic-wellness\img\sample-logo-with-text.png"
       inkscape:export-xdpi="96"
       inkscape:export-ydpi="96" />
    <path
       d="m 436.84439,180.5829 h -11.25858 c -7.15976,0 -13.63345,1.48413 -18.61185,3.85686 4.46825,3.02499 7.19494,6.82513 7.31808,10.96558 12.85941,-1.39906 22.55235,-7.4963 22.55235,-14.82244 z m -39.40505,15.12494 v 10.58746 c 0,0.83187 1.26659,1.51249 2.81465,1.51249 h 5.62929 c 1.54806,0 2.81465,-0.68062 2.81465,-1.51249 v -10.58746 c 0,-8.35653 -12.59555,-15.12494 -28.14647,-15.12494 h -11.25859 c 0,8.35653 12.59554,15.12494 28.14647,15.12494 z m 54.41064,15.89064 c -2.0758,-1.01148 -5.31265,-0.94531 -7.494,0 l -16.25458,6.98583 c -1.98785,0.86023 -4.46825,1.32344 -7.03662,1.32344 h -20.81079 c -1.54806,0 -2.81465,-0.68063 -2.81465,-1.5125 0,-0.83187 1.26659,-1.51249 2.81465,-1.51249 h 13.77417 c 2.79706,0 5.40061,-1.03039 5.85799,-2.51452 0.58052,-1.89062 -2.12858,-3.53546 -5.55893,-3.53546 h -28.14647 c -4.74972,0 -9.34111,0.87914 -13.03533,2.48616 l -8.18007,3.56382 h -9.74571 c -1.54806,0 -2.81465,0.68062 -2.81465,1.51249 v 9.07497 c 0,0.83187 1.26659,1.51249 2.81465,1.51249 h 62.76662 c 2.55077,0 5.03118,-0.4632 7.03662,-1.32343 l 26.59841,-11.43824 c 2.67391,-1.14382 2.88501,-3.33694 0.22869,-4.62256 z"
       id="path1863"
       style="opacity:0.5;fill:#214a5c;fill-opacity:1;stroke:#214a5c;stroke-width:2.264;stroke-miterlimit:4;stroke-dasharray:none;stroke-opacity:1"
       inkscape:export-filename="C:\Users\julia\Documents\crs-wholistic-wellness\img\sample-logo-with-text.png"
       inkscape:export-xdpi="96"
       inkscape:export-ydpi="96" />
    <g
       id="g2074"
       transform="matrix(0.37500202,0,0,0.35580186,404.73388,139.69639)"
       style="fill:#ffffff;stroke:#214a5c;stroke-width:6.19806;stroke-miterlimit:4;stroke-dasharray:none;stroke-opacity:1"
       inkscape:export-filename="C:\Users\julia\Documents\crs-wholistic-wellness\img\sample-logo-with-text.png"
       inkscape:export-xdpi="96"
       inkscape:export-ydpi="96">
      <g
         id="g2042"
         style="fill:#ffffff;stroke:#214a5c;stroke-width:6.19806;stroke-miterlimit:4;stroke-dasharray:none;stroke-opacity:1">
        <path
           style="fill:#ffffff;stroke:#214a5c;stroke-width:6.19806;stroke-miterlimit:4;stroke-dasharray:none;stroke-opacity:1"
           d="m 31.929,0.827 h 9.9 c 0,0 -1.218,24.105 8.912,17.325 C 55.373,15.053 63.3,9.549 73.016,17.906 80.65,24.474 87.45,35.254 76.973,58 71.508,69.859 53.363,88.593 25.739,68.146 21.535,65.038 10.397,57.507 9.653,81.513 H 0.001 c 0,0 -0.376,-28.086 15.84,-25.987 8.406,1.087 27.825,6.219 30.938,-13.862 0.644,-4.158 2.455,-9.284 -7.423,-15.098 -4.209,-2.473 -7.675,-4.701 -7.427,-25.739 z"
           id="path2040" />
      </g>
      <g
         id="g2044"
         style="fill:#ffffff;stroke:#214a5c;stroke-width:6.19806;stroke-miterlimit:4;stroke-dasharray:none;stroke-opacity:1" />
      <g
         id="g2046"
         style="fill:#ffffff;stroke:#214a5c;stroke-width:6.19806;stroke-miterlimit:4;stroke-dasharray:none;stroke-opacity:1" />
      <g
         id="g2048"
         style="fill:#ffffff;stroke:#214a5c;stroke-width:6.19806;stroke-miterlimit:4;stroke-dasharray:none;stroke-opacity:1" />
      <g
         id="g2050"
         style="fill:#ffffff;stroke:#214a5c;stroke-width:6.19806;stroke-miterlimit:4;stroke-dasharray:none;stroke-opacity:1" />
      <g
         id="g2052"
         style="fill:#ffffff;stroke:#214a5c;stroke-width:6.19806;stroke-miterlimit:4;stroke-dasharray:none;stroke-opacity:1" />
      <g
         id="g2054"
         style="fill:#ffffff;stroke:#214a5c;stroke-width:6.19806;stroke-miterlimit:4;stroke-dasharray:none;stroke-opacity:1" />
      <g
         id="g2056"
         style="fill:#ffffff;stroke:#214a5c;stroke-width:6.19806;stroke-miterlimit:4;stroke-dasharray:none;stroke-opacity:1" />
      <g
         id="g2058"
         style="fill:#ffffff;stroke:#214a5c;stroke-width:6.19806;stroke-miterlimit:4;stroke-dasharray:none;stroke-opacity:1" />
      <g
         id="g2060"
         style="fill:#ffffff;stroke:#214a5c;stroke-width:6.19806;stroke-miterlimit:4;stroke-dasharray:none;stroke-opacity:1" />
      <g
         id="g2062"
         style="fill:#ffffff;stroke:#214a5c;stroke-width:6.19806;stroke-miterlimit:4;stroke-dasharray:none;stroke-opacity:1" />
      <g
         id="g2064"
         style="fill:#ffffff;stroke:#214a5c;stroke-width:6.19806;stroke-miterlimit:4;stroke-dasharray:none;stroke-opacity:1" />
      <g
         id="g2066"
         style="fill:#ffffff;stroke:#214a5c;stroke-width:6.19806;stroke-miterlimit:4;stroke-dasharray:none;stroke-opacity:1" />
      <g
         id="g2068"
         style="fill:#ffffff;stroke:#214a5c;stroke-width:6.19806;stroke-miterlimit:4;stroke-dasharray:none;stroke-opacity:1" />
      <g
         id="g2070"
         style="fill:#ffffff;stroke:#214a5c;stroke-width:6.19806;stroke-miterlimit:4;stroke-dasharray:none;stroke-opacity:1" />
      <g
         id="g2072"
         style="fill:#ffffff;stroke:#214a5c;stroke-width:6.19806;stroke-miterlimit:4;stroke-dasharray:none;stroke-opacity:1" />
    </g>
    <path
       d="m 387.12337,154.94037 -2.52308,5.17189 c -0.30426,0.62374 -1.18535,0.60399 -1.46434,-0.0325 l -2.88361,-6.56882 -1.52155,3.72948 -4.96719,-0.003 8.93183,9.47053 c 0.64103,0.67936 1.68915,0.67936 2.33068,0 l 8.93184,-9.47053 -5.67607,2e-4 z m 7.23054,-9.40504 c -2.75247,-2.44196 -6.96218,-2.00118 -9.49387,0.67885 l -0.99749,1.05673 -0.99749,-1.05673 c -2.5317,-2.68003 -6.73939,-3.12081 -9.49337,-0.67885 -2.90841,2.58023 -3.23905,7.00362 -1.04458,10.03918 h 5.31657 l 1.81928,-4.48316 c 0.27889,-0.66949 1.198,-0.68197 1.49573,-0.0195 l 2.9474,6.72605 2.48461,-5.09392 c 0.29793,-0.61075 1.15344,-0.61075 1.45168,0 l 1.40104,2.87183 h 6.15203 c 2.19903,-3.03686 1.86485,-7.46026 -1.04154,-10.04048 z"
       id="path2760"
       style="fill:#ffffff;stroke:#214a5c;stroke-width:2.264;stroke-miterlimit:4;stroke-dasharray:none;stroke-opacity:1"
       inkscape:export-filename="C:\Users\julia\Documents\crs-wholistic-wellness\img\sample-logo-with-text.png"
       inkscape:export-xdpi="96"
       inkscape:export-ydpi="96" />
    <g
       id="g2801"
       transform="translate(212.14286,82.259476)"
       inkscape:export-filename="C:\Users\julia\Documents\crs-wholistic-wellness\img\sample-logo-with-text.png"
       inkscape:export-xdpi="96"
       inkscape:export-ydpi="96">
      <g
         id="g2804"
         transform="translate(83.558309,-53.685131)">
        <path
           d="m 100.78772,82.065521 c 1.61727,0 2.93098,1.14255 2.93098,2.55216 v 18.229689 c 0,1.40824 -1.31371,2.55215 -2.93098,2.55215 -1.512606,0 -2.758276,-0.99808 -2.915296,-2.28327 -0.27216,0.0638 -0.56002,0.0958 -0.85312,0.0958 -1.85019,0 -3.3497,-1.30799 -3.3497,-2.91674 0,-0.337264 0.0665,-0.665394 0.1879,-0.966178 -1.57855,-0.51955 -2.70017,-1.850323 -2.70017,-3.408963 0,-1.453818 0.97926,-2.711668 2.39555,-3.295018 -0.45116,-0.49675 -0.7207,-1.1667 -0.7207,-1.8093 0,-1.39912 1.12999,-2.56582 2.63841,-2.85293 -0.0822,-0.25066 -0.12614,-0.51955 -0.12614,-0.793 0,-1.36449 1.07818,-2.51022 2.52797,-2.82879 0.15702,-1.27928 1.40269,-2.27552 2.915296,-2.27552 z m 10.45211,2.27552 c 1.4498,0.31857 2.52797,1.4643 2.52797,2.82879 0,0.27345 -0.0418,0.54234 -0.12565,0.793 1.50737,0.28711 2.63789,1.45381 2.63789,2.85293 0,0.6426 -0.26692,1.31255 -0.72227,1.80931 1.41838,0.58335 2.39712,1.84119 2.39712,3.295018 0,1.55864 -1.12006,2.889403 -2.70069,3.408953 0.12037,0.300784 0.18842,0.628924 0.18842,0.966178 0,1.60875 -1.50214,2.91674 -3.3497,2.91674 -0.2931,0 -0.58096,-0.0319 -0.85313,-0.0958 -0.15701,1.28519 -1.40268,2.28327 -2.91529,2.28327 -1.61727,0 -2.93098,-1.14391 -2.93098,-2.55215 V 84.617591 c 0,-1.40961 1.31371,-2.55215 2.93098,-2.55215 1.51261,0 2.75828,0.99624 2.91529,2.27551 z"
           id="path2780"
           style="fill:#ffffff;fill-opacity:1;stroke:#214a5c;stroke-width:2.264;stroke-miterlimit:4;stroke-dasharray:none;stroke-opacity:1" />
      </g>
    </g>
    <path
       d="m 435.11262,178.41819 h -11.25859 c -7.15976,0 -13.63345,1.48413 -18.61185,3.85686 4.46825,3.02499 7.19494,6.82513 7.31808,10.96558 12.85941,-1.39906 22.55236,-7.4963 22.55236,-14.82244 z m -39.40506,15.12494 v 10.58746 c 0,0.83187 1.26659,1.51249 2.81465,1.51249 h 5.62929 c 1.54806,0 2.81465,-0.68062 2.81465,-1.51249 v -10.58746 c 0,-8.35653 -12.59555,-15.12494 -28.14647,-15.12494 h -11.25859 c 0,8.35653 12.59555,15.12494 28.14647,15.12494 z m 54.41065,15.89064 c -2.0758,-1.01148 -5.31265,-0.94531 -7.494,0 l -16.25459,6.98583 c -1.98785,0.86023 -4.46825,1.32344 -7.03662,1.32344 h -20.81079 c -1.54806,0 -2.81465,-0.68063 -2.81465,-1.5125 0,-0.83187 1.26659,-1.51249 2.81465,-1.51249 h 13.77417 c 2.79706,0 5.40061,-1.03039 5.85799,-2.51452 0.58052,-1.89062 -2.12858,-3.53546 -5.55893,-3.53546 h -28.14647 c -4.74971,0 -9.3411,0.87914 -13.03533,2.48616 l -8.18007,3.56382 h -9.74571 c -1.54806,0 -2.81465,0.68062 -2.81465,1.51249 v 9.07497 c 0,0.83187 1.26659,1.51249 2.81465,1.51249 h 62.76662 c 2.55077,0 5.03118,-0.4632 7.03662,-1.32343 l 26.59842,-11.43824 c 2.67391,-1.14382 2.88501,-3.33694 0.22869,-4.62256 z"
       id="path4038"
       style="fill:#ffffff;fill-opacity:1;stroke:#214a5c;stroke-width:2.264;stroke-miterlimit:4;stroke-dasharray:none;stroke-opacity:1"
       inkscape:export-filename="C:\Users\julia\Documents\crs-wholistic-wellness\img\sample-logo-with-text.png"
       inkscape:export-xdpi="96"
       inkscape:export-ydpi="96" />
    <ellipse
       style="opacity:1;fill:#214a5c;fill-opacity:1;stroke:#214a5c;stroke-width:1.80775;stroke-linecap:round;stroke-linejoin:round;stroke-miterlimit:4;stroke-dasharray:none;stroke-opacity:1;paint-order:stroke fill markers"
       id="path4600"
       cx="115.24889"
       cy="399.16962"
       rx="8.2519197"
       ry="4.8660617"
       transform="matrix(0.83168447,-0.55524854,0.82633945,0.56317236,0,0)"
       inkscape:export-filename="C:\Users\julia\Documents\crs-wholistic-wellness\img\sample-logo-with-text.png"
       inkscape:export-xdpi="96"
       inkscape:export-ydpi="96" />
    <ellipse
       style="opacity:1;fill:#214a5c;fill-opacity:1;stroke:#214a5c;stroke-width:3.04336;stroke-linecap:round;stroke-linejoin:round;stroke-miterlimit:4;stroke-dasharray:none;stroke-opacity:1;paint-order:stroke fill markers"
       id="path4704"
       cx="148.40089"
       cy="-423.40347"
       rx="1.4425253"
       ry="8.9516706"
       transform="matrix(-0.0089747,0.99995973,-0.99939752,-0.03470744,0,0)"
       inkscape:export-filename="C:\Users\julia\Documents\crs-wholistic-wellness\img\sample-logo-with-text.png"
       inkscape:export-xdpi="96"
       inkscape:export-ydpi="96" />
    <text
       xml:space="preserve"
       style="font-style:normal;font-variant:normal;font-weight:normal;font-stretch:normal;font-size:29.421px;line-height:1.25;font-family:'Vladimir Script';-inkscape-font-specification:'Vladimir Script, Normal';font-variant-ligatures:normal;font-variant-caps:normal;font-variant-numeric:normal;font-variant-east-asian:normal;stroke-width:1.37909"
       x="553.84137"
       y="161.21312"
       id="text29103"
       transform="scale(0.82216193,1.2163054)"
       inkscape:export-filename="C:\Users\julia\Documents\crs-wholistic-wellness\img\sample-logo-with-text.png"
       inkscape:export-xdpi="96"
       inkscape:export-ydpi="96"><tspan
         sodipodi:role="line"
         id="tspan29101"
         style="font-style:normal;font-variant:normal;font-weight:normal;font-stretch:normal;font-size:29.421px;font-family:'Vladimir Script';-inkscape-font-specification:'Vladimir Script, Normal';font-variant-ligatures:normal;font-variant-caps:normal;font-variant-numeric:normal;font-variant-east-asian:normal;stroke-width:1.37909"
         x="553.84137"
         y="161.21312"><tspan
   id="tspan29093"
   style="font-style:normal;font-variant:normal;font-weight:normal;font-stretch:normal;font-size:29.421px;font-family:'Vladimir Script';-inkscape-font-specification:'Vladimir Script, Normal';font-variant-ligatures:normal;font-variant-caps:normal;font-variant-numeric:normal;font-variant-east-asian:normal;fill:#214a5c;fill-opacity:1;stroke-width:1.37909">CRS</tspan><tspan
   style="font-style:normal;font-variant:normal;font-weight:normal;font-stretch:normal;font-size:29.421px;font-family:'Vladimir Script';-inkscape-font-specification:'Vladimir Script, Normal';font-variant-ligatures:normal;font-variant-caps:normal;font-variant-numeric:normal;font-variant-east-asian:normal;fill:#000080;stroke-width:1.37909"
   id="tspan29095"> </tspan><tspan
   style="font-style:normal;font-variant:normal;font-weight:normal;font-stretch:normal;font-size:29.421px;font-family:'Vladimir Script';-inkscape-font-specification:'Vladimir Script, Normal';font-variant-ligatures:normal;font-variant-caps:normal;font-variant-numeric:normal;font-variant-east-asian:normal;fill:#fb8500;fill-opacity:1;stroke-width:1.37909"
   id="tspan29097">Wholistic</tspan> <tspan
   style="font-style:normal;font-variant:normal;font-weight:normal;font-stretch:normal;font-size:29.421px;font-family:'Vladimir Script';-inkscape-font-specification:'Vladimir Script, Normal';font-variant-ligatures:normal;font-variant-caps:normal;font-variant-numeric:normal;font-variant-east-asian:normal;fill:#214a5c;fill-opacity:1;stroke-width:1.37909"
   id="tspan29099">Wellness</tspan></tspan></text>
  </g>
</svg>
