<?xml version="1.0" encoding="UTF-8" standalone="no"?>
<!-- Created with Inkscape (http://www.inkscape.org/) -->

<svg
   width="210mm"
   height="297mm"
   viewBox="0 0 210 297"
   version="1.1"
   id="svg5"
   inkscape:version="1.1.1 (3bf5ae0d25, 2021-09-20)"
   sodipodi:docname="sample-of-logo.svg"
   xmlns:inkscape="http://www.inkscape.org/namespaces/inkscape"
   xmlns:sodipodi="http://sodipodi.sourceforge.net/DTD/sodipodi-0.dtd"
   xmlns="http://www.w3.org/2000/svg"
   xmlns:svg="http://www.w3.org/2000/svg">
  <sodipodi:namedview
     id="namedview7"
     pagecolor="#ffffff"
     bordercolor="#999999"
     borderopacity="1"
     inkscape:pageshadow="0"
     inkscape:pageopacity="0"
     inkscape:pagecheckerboard="0"
     inkscape:document-units="mm"
     showgrid="false"
     inkscape:snap-nodes="false"
     inkscape:zoom="0.61112514"
     inkscape:cx="703.62021"
     inkscape:cy="561.25984"
     inkscape:window-width="1682"
     inkscape:window-height="1008"
     inkscape:window-x="400"
     inkscape:window-y="31"
     inkscape:window-maximized="0"
     inkscape:current-layer="layer1" />
  <defs
     id="defs2">
    <inkscape:path-effect
       effect="skeletal"
       id="path-effect1007"
       is_visible="true"
       lpeversion="1"
       pattern="M 0,4.9921382 C 0,2.2364779 2.2364779,0 4.9921382,0 c 2.7556604,0 4.9921383,2.2364779 4.9921383,4.9921382 0,2.7556604 -2.2364779,4.9921383 -4.9921383,4.9921383 C 2.2364779,9.9842765 0,7.7477986 0,4.9921382 Z"
       copytype="single_stretched"
       prop_scale="1"
       scale_y_rel="false"
       spacing="0"
       normal_offset="0"
       tang_offset="0"
       prop_units="false"
       vertical_pattern="false"
       hide_knot="false"
       fuse_tolerance="0" />
    <inkscape:path-effect
       effect="skeletal"
       id="path-effect992"
       is_visible="true"
       lpeversion="1"
       pattern="M 0,4.9921382 C 0,2.2364779 2.2364779,0 4.9921382,0 c 2.7556604,0 4.9921383,2.2364779 4.9921383,4.9921382 0,2.7556604 -2.2364779,4.9921383 -4.9921383,4.9921383 C 2.2364779,9.9842765 0,7.7477986 0,4.9921382 Z"
       copytype="single_stretched"
       prop_scale="1"
       scale_y_rel="false"
       spacing="0"
       normal_offset="0"
       tang_offset="0"
       prop_units="false"
       vertical_pattern="false"
       hide_knot="false"
       fuse_tolerance="0" />
    <inkscape:path-effect
       effect="skeletal"
       id="path-effect986"
       is_visible="true"
       lpeversion="1"
       pattern="M 0,4.9921382 C 0,2.2364779 2.2364779,0 4.9921382,0 c 2.7556604,0 4.9921383,2.2364779 4.9921383,4.9921382 0,2.7556604 -2.2364779,4.9921383 -4.9921383,4.9921383 C 2.2364779,9.9842765 0,7.7477986 0,4.9921382 Z"
       copytype="single_stretched"
       prop_scale="1"
       scale_y_rel="false"
       spacing="0"
       normal_offset="0"
       tang_offset="0"
       prop_units="false"
       vertical_pattern="false"
       hide_knot="false"
       fuse_tolerance="0" />
    <inkscape:path-effect
       effect="skeletal"
       id="path-effect947"
       is_visible="true"
       lpeversion="1"
       pattern="M 0,4.9921382 C 0,2.2364779 2.2364779,0 4.9921382,0 c 2.7556604,0 4.9921383,2.2364779 4.9921383,4.9921382 0,2.7556604 -2.2364779,4.9921383 -4.9921383,4.9921383 C 2.2364779,9.9842765 0,7.7477986 0,4.9921382 Z"
       copytype="single_stretched"
       prop_scale="1"
       scale_y_rel="false"
       spacing="0"
       normal_offset="0"
       tang_offset="0"
       prop_units="false"
       vertical_pattern="false"
       hide_knot="false"
       fuse_tolerance="0" />
  </defs>
  <g
     inkscape:label="Layer 1"
     inkscape:groupmode="layer"
     id="layer1">
    <path
       d="m 144.24145,206.02782 -2.52309,5.17189 c -0.30426,0.62374 -1.18534,0.60399 -1.46433,-0.0325 l -2.88361,-6.56882 -1.52155,3.72948 -4.9672,-0.003 8.93184,9.47053 c 0.64103,0.67936 1.68915,0.67936 2.33068,0 l 8.93184,-9.47053 -5.67607,2e-4 z m 7.23054,-9.40504 c -2.75247,-2.44196 -6.96218,-2.00118 -9.49388,0.67885 l -0.99749,1.05673 -0.99749,-1.05673 c -2.5317,-2.68003 -6.73938,-3.12081 -9.49336,-0.67885 -2.90842,2.58023 -3.23906,7.00362 -1.04458,10.03918 h 5.31657 l 1.81928,-4.48316 c 0.27889,-0.66949 1.198,-0.68197 1.49572,-0.0195 l 2.94741,6.72605 2.48461,-5.09392 c 0.29793,-0.61075 1.15344,-0.61075 1.45168,0 l 1.40104,2.87183 h 6.15203 c 2.19903,-3.03686 1.86485,-7.46026 -1.04154,-10.04048 z"
       id="path824"
       style="stroke-width:0.0513019" />
    <path
       d="m 69.18276,85.962023 c 1.617277,0 2.930987,1.14255 2.930987,2.55216 v 18.229687 c 0,1.40824 -1.31371,2.55215 -2.930987,2.55215 -1.512598,0 -2.758267,-0.99808 -2.915283,-2.28327 -0.272164,0.0638 -0.560027,0.0958 -0.853127,0.0958 -1.850184,0 -3.349698,-1.30799 -3.349698,-2.91675 0,-0.33726 0.06647,-0.66539 0.187897,-0.96617 -1.578544,-0.51955 -2.70017,-1.85032 -2.70017,-3.408957 0,-1.45382 0.979264,-2.71167 2.395557,-3.29502 -0.451162,-0.49675 -0.720708,-1.1667 -0.720708,-1.8093 0,-1.39912 1.129999,-2.56582 2.638411,-2.85293 -0.08218,-0.25066 -0.126139,-0.51955 -0.126139,-0.793 0,-1.36449 1.078184,-2.51022 2.527975,-2.82879 0.157017,-1.27928 1.402686,-2.27552 2.915284,-2.27552 z m 10.452108,2.27552 c 1.4498,0.31857 2.52797,1.4643 2.52797,2.82879 0,0.27345 -0.0418,0.54234 -0.12565,0.793 1.50737,0.28711 2.63789,1.45381 2.63789,2.85293 0,0.6426 -0.26692,1.31255 -0.72227,1.80931 1.41838,0.58335 2.39712,1.84119 2.39712,3.29502 0,1.558637 -1.12006,2.889397 -2.70069,3.408947 0.12037,0.30078 0.18842,0.62892 0.18842,0.96617 0,1.60876 -1.50214,2.91675 -3.3497,2.91675 -0.2931,0 -0.58096,-0.0319 -0.85313,-0.0958 -0.15701,1.28519 -1.40268,2.28327 -2.91529,2.28327 -1.61727,0 -2.930979,-1.14391 -2.930979,-2.55215 V 88.514093 c 0,-1.40961 1.313709,-2.55215 2.930979,-2.55215 1.51261,0 2.75828,0.99624 2.91529,2.27551 z"
       id="path833"
       style="stroke-width:0.0488396" />
    <path
       sodipodi:type="star"
       style="fill:#000000;stroke:#667b68;stroke-width:0.774803;stroke-linecap:round;stroke-linejoin:round;paint-order:stroke fill markers"
       id="path1178"
       inkscape:flatsided="true"
       sodipodi:sides="3"
       sodipodi:cx="55.635086"
       sodipodi:cy="412.35416"
       sodipodi:r1="252.29686"
       sodipodi:r2="126.14843"
       sodipodi:arg1="0.53040871"
       sodipodi:arg2="1.5776063"
       inkscape:rounded="0.06"
       inkscape:randomized="0"
       d="M 273.26645,539.98759 C 260.0024,562.6045 -150.7596,559.8072 -163.71439,537.01173 -176.66919,514.21627 31.134347,159.8846 57.353198,160.06315 83.572049,160.2417 286.53051,517.37067 273.26645,539.98759 Z"
       transform="matrix(0.26458333,0,0,0.26458333,57.581633,65.374636)"
       inkscape:transform-center-x="0.2272921"
       inkscape:transform-center-y="-16.49116" />
    <path
       sodipodi:type="star"
       style="fill:#ffffff;stroke:#667b68;stroke-width:0.774803;stroke-linecap:round;stroke-linejoin:round;paint-order:stroke fill markers"
       id="path1282"
       inkscape:flatsided="true"
       sodipodi:sides="3"
       sodipodi:cx="-173.45056"
       sodipodi:cy="158.72363"
       sodipodi:r1="141.71944"
       sodipodi:r2="70.859718"
       sodipodi:arg1="0.54636002"
       sodipodi:arg2="1.5935576"
       inkscape:rounded="0"
       inkscape:randomized="0"
       d="M -52.362436,232.3583 -297.76412,226.77169 -170.22513,17.040905 Z"
       transform="matrix(0.38269403,-0.00438129,0.00444377,0.38815202,138.4008,111.03222)"
       inkscape:transform-center-x="0.30234814"
       inkscape:transform-center-y="-13.478844" />
    <g
       id="g1647"
       transform="matrix(0.37500202,0,0,0.35580186,-14.789451,186.4544)"
       style="fill:#000000">
      <g
         id="g1593"
         style="fill:#000000">
	<path
   style="fill:#000000"
   d="m 31.929,0.827 h 9.9 c 0,0 -1.218,24.105 8.912,17.325 C 55.373,15.053 63.3,9.549 73.016,17.906 80.65,24.474 87.45,35.254 76.973,58 71.508,69.859 53.363,88.593 25.739,68.146 21.535,65.038 10.397,57.507 9.653,81.513 H 0.001 c 0,0 -0.376,-28.086 15.84,-25.987 8.406,1.087 27.825,6.219 30.938,-13.862 0.644,-4.158 2.455,-9.284 -7.423,-15.098 -4.209,-2.473 -7.675,-4.701 -7.427,-25.739 z"
   id="path1591" />

</g>
      <g
         id="g1595"
         style="fill:#000000">
</g>
      <g
         id="g1597"
         style="fill:#000000">
</g>
      <g
         id="g1599"
         style="fill:#000000">
</g>
      <g
         id="g1601"
         style="fill:#000000">
</g>
      <g
         id="g1603"
         style="fill:#000000">
</g>
      <g
         id="g1605"
         style="fill:#000000">
</g>
      <g
         id="g1607"
         style="fill:#000000">
</g>
      <g
         id="g1609"
         style="fill:#000000">
</g>
      <g
         id="g1611"
         style="fill:#000000">
</g>
      <g
         id="g1613"
         style="fill:#000000">
</g>
      <g
         id="g1615"
         style="fill:#000000">
</g>
      <g
         id="g1617"
         style="fill:#000000">
</g>
      <g
         id="g1619"
         style="fill:#000000">
</g>
      <g
         id="g1621"
         style="fill:#000000">
</g>
      <g
         id="g1623"
         style="fill:#000000">
</g>
    </g>
    <g
       id="g1803"
       transform="matrix(0.37500202,0,0,0.35580186,260.13038,87.310087)"
       style="fill:#000000">
      <g
         id="g1771"
         style="fill:#000000">
	<path
   style="fill:#000000"
   d="m 31.929,0.827 h 9.9 c 0,0 -1.218,24.105 8.912,17.325 C 55.373,15.053 63.3,9.549 73.016,17.906 80.65,24.474 87.45,35.254 76.973,58 71.508,69.859 53.363,88.593 25.739,68.146 21.535,65.038 10.397,57.507 9.653,81.513 H 0.001 c 0,0 -0.376,-28.086 15.84,-25.987 8.406,1.087 27.825,6.219 30.938,-13.862 0.644,-4.158 2.455,-9.284 -7.423,-15.098 -4.209,-2.473 -7.675,-4.701 -7.427,-25.739 z"
   id="path1769" />

</g>
      <g
         id="g1773"
         style="fill:#000000">
</g>
      <g
         id="g1775"
         style="fill:#000000">
</g>
      <g
         id="g1777"
         style="fill:#000000">
</g>
      <g
         id="g1779"
         style="fill:#000000">
</g>
      <g
         id="g1781"
         style="fill:#000000">
</g>
      <g
         id="g1783"
         style="fill:#000000">
</g>
      <g
         id="g1785"
         style="fill:#000000">
</g>
      <g
         id="g1787"
         style="fill:#000000">
</g>
      <g
         id="g1789"
         style="fill:#000000">
</g>
      <g
         id="g1791"
         style="fill:#000000">
</g>
      <g
         id="g1793"
         style="fill:#000000">
</g>
      <g
         id="g1795"
         style="fill:#000000">
</g>
      <g
         id="g1797"
         style="fill:#000000">
</g>
      <g
         id="g1799"
         style="fill:#000000">
</g>
      <g
         id="g1801"
         style="fill:#000000">
</g>
    </g>
    <path
       d="m 270.93495,34.87456 c 1.61727,0 2.93098,1.14255 2.93098,2.55216 v 18.229687 c 0,1.40824 -1.31371,2.55215 -2.93098,2.55215 -1.5126,0 -2.75827,-0.99808 -2.91529,-2.28327 -0.27216,0.0638 -0.56002,0.0958 -0.85312,0.0958 -1.85019,0 -3.3497,-1.30799 -3.3497,-2.91675 0,-0.33726 0.0665,-0.66539 0.1879,-0.96617 -1.57855,-0.51955 -2.70017,-1.85032 -2.70017,-3.408957 0,-1.45382 0.97926,-2.71167 2.39555,-3.29502 -0.45116,-0.49675 -0.7207,-1.1667 -0.7207,-1.8093 0,-1.39912 1.12999,-2.56582 2.63841,-2.85293 -0.0822,-0.25066 -0.12614,-0.51955 -0.12614,-0.793 0,-1.36449 1.07818,-2.51022 2.52797,-2.82879 0.15702,-1.27928 1.40269,-2.27552 2.91529,-2.27552 z m 10.45211,2.27552 c 1.4498,0.31857 2.52797,1.4643 2.52797,2.82879 0,0.27345 -0.0418,0.54234 -0.12565,0.793 1.50737,0.28711 2.63789,1.45381 2.63789,2.85293 0,0.6426 -0.26692,1.31255 -0.72227,1.80931 1.41838,0.58335 2.39712,1.84119 2.39712,3.29502 0,1.558637 -1.12006,2.889397 -2.70069,3.408947 0.12037,0.30078 0.18842,0.62892 0.18842,0.96617 0,1.60876 -1.50214,2.91675 -3.3497,2.91675 -0.2931,0 -0.58096,-0.0319 -0.85313,-0.0958 -0.15701,1.28519 -1.40268,2.28327 -2.91529,2.28327 -1.61727,0 -2.93098,-1.14391 -2.93098,-2.55215 V 37.42663 c 0,-1.40961 1.31371,-2.55215 2.93098,-2.55215 1.51261,0 2.75828,0.99624 2.91529,2.27551 z"
       id="path1805"
       style="stroke-width:0.0488396" />
    <path
       d="m 277.15544,73.54678 -2.52308,5.17189 c -0.30426,0.62374 -1.18535,0.60399 -1.46434,-0.0325 l -2.88361,-6.56882 -1.52155,3.72948 -4.96719,-0.003 8.93183,9.47053 c 0.64103,0.67936 1.68915,0.67936 2.33068,0 l 8.93184,-9.47053 -5.67607,2e-4 z m 7.23054,-9.40504 c -2.75247,-2.44196 -6.96218,-2.00118 -9.49387,0.67885 l -0.99749,1.05673 -0.99749,-1.05673 c -2.5317,-2.68003 -6.73939,-3.12081 -9.49337,-0.67885 -2.90841,2.58023 -3.23905,7.00362 -1.04458,10.03918 h 5.31657 l 1.81928,-4.48316 c 0.27889,-0.66949 1.198,-0.68197 1.49573,-0.0195 l 2.9474,6.72605 2.48461,-5.09392 c 0.29793,-0.61075 1.15344,-0.61075 1.45168,0 l 1.40104,2.87183 h 6.15203 c 2.19903,-3.03686 1.86485,-7.46026 -1.04154,-10.04048 z"
       id="path1807"
       style="stroke-width:0.0513019" />
    <g
       style="overflow:hidden;fill:currentColor"
       id="g1872"
       transform="matrix(0.08795771,0,0,0.04726544,220.78983,113.90943)">
      <path
         d="M 960,0 H 832 c -81.4,0 -155,31.4 -211.6,81.6 50.8,64 81.8,144.4 83.2,232 C 849.8,284 960,155 960,0 Z M 512,320 v 224 c 0,17.6 14.4,32 32,32 h 64 c 17.6,0 32,-14.4 32,-32 V 320 C 640,143.2 496.8,0 320,0 H 192 c 0,176.8 143.2,320 320,320 z m 618.6,336.2 c -23.6,-21.4 -60.4,-20 -85.2,0 L 860.6,804 c -22.6,18.2 -50.8,28 -80,28 H 544 c -17.6,0 -32,-14.4 -32,-32 0,-17.6 14.4,-32 32,-32 h 156.6 c 31.8,0 61.4,-21.8 66.6,-53.2 C 773.8,674.8 743,640 704,640 H 384 c -54,0 -106.2,18.6 -148.2,52.6 l -93,75.4 H 32 C 14.4,768 0,782.4 0,800 v 192 c 0,17.6 14.4,32 32,32 h 713.6 c 29,0 57.2,-9.8 80,-28 L 1128,754 c 30.4,-24.2 32.8,-70.6 2.6,-97.8 z"
         id="path1863" />
    </g>
  </g>
</svg>
